<svg width="140.000000" height="22.591797" viewBox="0 0 140 22.5918" fill="none" xmlns="http://www.w3.org/2000/svg" xmlns:xlink="http://www.w3.org/1999/xlink">
	<desc>
			Created with Pixso.
	</desc>
	<defs/>
	<circle cx="8.500000" cy="11.000000" r="8.000000" stroke="#333333" stroke-opacity="1.000000" stroke-width="1.000000"/>
	<path d="M35.5369 4.80859C35.5369 5.30176 35.1024 5.7168 34.5848 5.7168C34.0672 5.7168 33.6424 5.30176 33.6424 4.80859C33.6424 4.31055 34.0672 3.89551 34.5848 3.89551C35.1024 3.89551 35.5369 4.31055 35.5369 4.80859ZM67.7182 3.9541L68.9829 3.9541L68.9829 18.5L67.7182 18.5L67.7182 3.9541ZM27.3076 7.44043C29.2998 7.44043 30.4668 8.40723 30.999 9.98438L29.8418 10.3115C29.5 9.33008 28.7773 8.55859 27.3076 8.55859C25.833 8.55859 24.7783 9.33008 24.7783 10.4385C24.7783 11.3857 25.4082 11.9326 26.7656 12.2695L28.4111 12.6748C30.2373 13.124 31.1553 14.0957 31.1553 15.5508C31.1553 17.4062 29.5049 18.7295 27.1074 18.7295C24.9688 18.7295 23.5283 17.7383 23.1426 15.9219L24.3584 15.624C24.6611 16.918 25.5938 17.5918 27.083 17.5918C28.7627 17.5918 29.8467 16.7471 29.8467 15.6094C29.8467 14.7354 29.2705 14.1201 28.0742 13.832L26.292 13.4072C24.3926 12.9531 23.5039 11.957 23.5039 10.4971C23.5039 8.7002 25.1055 7.44043 27.3076 7.44043ZM56.9871 22.5918L55.7225 22.5918L55.7225 7.5918L56.9481 7.5918L56.9481 9.67188L57.0994 9.67188C57.5487 8.69043 58.4276 7.44043 60.4393 7.44043C63.1297 7.44043 64.9412 9.70605 64.9412 13.0752C64.9412 16.4541 63.1199 18.7295 60.4539 18.7295C58.4764 18.7295 57.5389 17.4795 57.0994 16.4736L56.9871 16.4736L56.9871 22.5918ZM80.8849 16.1709C80.3869 17.543 78.9172 18.7295 76.7297 18.7295C73.6779 18.7295 71.759 16.4199 71.759 13.1094C71.759 9.80859 73.7121 7.44043 76.5392 7.44043C78.9025 7.44043 81.1535 9.1543 81.1535 12.7969L81.1535 13.4219L73.0285 13.4219C73.0871 15.9414 74.4982 17.5674 76.7297 17.5674C78.2775 17.5674 79.2639 16.7617 79.6838 15.7803L80.8849 16.1709ZM39.828 18.5L38.5634 18.5L38.5634 7.5918L39.789 7.5918L39.789 9.2666L39.9062 9.2666C40.3358 8.13867 41.4052 7.4502 42.831 7.4502C44.3349 7.4502 45.2968 8.19238 45.7802 9.43262L45.873 9.43262C46.3612 8.22168 47.5136 7.4502 49.1005 7.4502C51.1269 7.4502 52.3817 8.74902 52.3817 11.1904L52.3817 18.5L51.1171 18.5L51.1171 11.1904C51.1171 9.47168 50.1601 8.60742 48.7196 8.60742C47.0546 8.60742 46.1171 9.75 46.1171 11.3174L46.1171 18.5L44.828 18.5L44.828 11.0781C44.828 9.59863 43.9589 8.60742 42.4696 8.60742C40.956 8.60742 39.828 9.81348 39.828 11.5127L39.828 18.5ZM35.2098 18.5L33.9403 18.5L33.9403 7.5918L35.2098 7.5918L35.2098 18.5ZM60.3026 8.59277C58.1639 8.59277 56.9725 10.4385 56.9725 13.0508C56.9725 15.6875 58.1932 17.5674 60.3026 17.5674C62.4705 17.5674 63.6766 15.5947 63.6766 13.0508C63.6766 10.5361 62.4949 8.59277 60.3026 8.59277ZM76.5392 8.59277C74.5422 8.59277 73.1701 10.2773 73.0383 12.3086L79.8644 12.3086C79.8644 10.2041 78.4924 8.59277 76.5392 8.59277Z" fill="#333333" fill-opacity="1.000000" fill-rule="evenodd"/>
	<rect x="86.500000" y="3.000000" rx="8.000000" width="31.000000" height="16.000000" stroke="#333333" stroke-opacity="1.000000" stroke-width="1.000000"/>
	<circle cx="131.500000" cy="11.000000" r="8.000000" stroke="#333333" stroke-opacity="1.000000" stroke-width="1.000000"/>
</svg>
